<svg width="94" height="94" viewBox="0 0 94 94" fill="none" xmlns="http://www.w3.org/2000/svg">
<path fill-rule="evenodd" clip-rule="evenodd" d="M7.40081 0.0909701L78.4944 10.471C82.5708 11.0661 86.218 14.9164 86.6631 19.0714L93.956 87.1582C94.3948 91.2579 91.5118 94.3098 87.4946 93.9749L17.4587 88.1436C12.9716 87.77 8.90597 83.9244 8.40316 79.5521L0.0519382 6.91517C-0.457927 2.48074 2.84425 -0.574294 7.40081 0.0909701Z" fill="#498205"/>
<g mask="url(#mask0_114_10)">
<path fill-rule="evenodd" clip-rule="evenodd" d="M7.40081 0.0909701L78.4944 10.471C82.5708 11.0661 86.218 14.9164 86.6631 19.0714L93.956 87.1582C94.3948 91.2579 91.5118 94.3098 87.4946 93.9749L17.4587 88.1436C12.9716 87.77 8.90597 83.9244 8.40316 79.5521L0.0519382 6.91517C-0.457927 2.48074 2.84425 -0.574294 7.40081 0.0909701Z" fill="#28C67B"/>
<path opacity="0.15" fill-rule="evenodd" clip-rule="evenodd" d="M4.63162 9.92844L12.3141 76.7488C12.7247 80.319 16.0994 83.5335 19.8087 83.8423L84.2361 89.2066C85.8255 89.3391 87.1327 88.8034 88.0026 87.8847C88.8748 86.9636 89.3672 85.5931 89.1912 83.9485L82.4825 21.3138C82.1164 17.8972 79.0728 14.6981 75.7481 14.2127L10.3474 4.66391C8.48481 4.39195 6.96842 4.88802 5.97635 5.80821C4.98874 6.72425 4.42675 8.14657 4.63162 9.92844ZM3.71965 10.0333L11.4021 76.8537C11.8647 80.8756 15.6048 84.4135 19.7325 84.757L84.16 90.1214C87.8557 90.4295 90.5077 87.622 90.104 83.8506L83.3953 21.2161C82.9857 17.3938 79.6305 13.8518 75.8806 13.3043L10.4801 3.75556C6.28839 3.14357 3.25063 5.95395 3.71965 10.0333Z" fill="white"/>
<path fill-rule="evenodd" clip-rule="evenodd" d="M26.2539 29.0078L47 65.0252L67.7461 29.0078H40.1024L46.9996 41.0376L50.4574 35.0827H57.3367L47 52.9714L33.1871 29.0078H26.2539Z" fill="white"/>
</g>
</svg>
